<svg width="187" height="50" viewBox="0 0 187 50" fill="none" xmlns="http://www.w3.org/2000/svg">
<g clip-path="url(#clip0)">
<path d="M44.3115 16.88V32H41.8545V25.2695H34.263V32H31.7955V16.88H34.263V23.495H41.8545V16.88H44.3115ZM53.981 25.4375C53.981 25.0595 53.925 24.7095 53.813 24.3875C53.708 24.0585 53.5505 23.775 53.3405 23.537C53.1305 23.292 52.868 23.103 52.553 22.97C52.245 22.83 51.888 22.76 51.482 22.76C50.663 22.76 50.019 22.9945 49.55 23.4635C49.081 23.9325 48.7835 24.5905 48.6575 25.4375H53.981ZM48.5945 26.8235C48.6225 27.4325 48.717 27.961 48.878 28.409C49.039 28.85 49.2525 29.2175 49.5185 29.5115C49.7915 29.8055 50.1135 30.026 50.4845 30.173C50.8625 30.313 51.2825 30.383 51.7445 30.383C52.1855 30.383 52.567 30.334 52.889 30.236C53.211 30.131 53.491 30.019 53.729 29.9C53.967 29.774 54.17 29.662 54.338 29.564C54.506 29.459 54.66 29.4065 54.8 29.4065C54.982 29.4065 55.122 29.4765 55.22 29.6165L55.8605 30.446C55.5945 30.761 55.2935 31.027 54.9575 31.244C54.6215 31.461 54.2645 31.6395 53.8865 31.7795C53.5085 31.9125 53.12 32.007 52.721 32.063C52.322 32.126 51.9335 32.1575 51.5555 32.1575C50.8135 32.1575 50.124 32.035 49.487 31.79C48.857 31.538 48.3075 31.1705 47.8385 30.6875C47.3765 30.2045 47.0125 29.606 46.7465 28.892C46.4875 28.178 46.358 27.3555 46.358 26.4245C46.358 25.6825 46.4735 24.9895 46.7045 24.3455C46.9425 23.7015 47.2785 23.1415 47.7125 22.6655C48.1535 22.1895 48.6855 21.815 49.3085 21.542C49.9385 21.262 50.649 21.122 51.44 21.122C52.098 21.122 52.707 21.2305 53.267 21.4475C53.827 21.6575 54.31 21.969 54.716 22.382C55.122 22.795 55.437 23.3025 55.661 23.9045C55.892 24.4995 56.0075 25.1785 56.0075 25.9415C56.0075 26.2915 55.969 26.526 55.892 26.645C55.815 26.764 55.675 26.8235 55.472 26.8235H48.5945ZM63.6253 27.317C62.8203 27.345 62.1413 27.4115 61.5883 27.5165C61.0353 27.6145 60.5873 27.744 60.2443 27.905C59.9013 28.059 59.6528 28.2445 59.4988 28.4615C59.3518 28.6785 59.2783 28.9165 59.2783 29.1755C59.2783 29.4275 59.3168 29.6445 59.3938 29.8265C59.4778 30.0015 59.5898 30.1485 59.7298 30.2675C59.8768 30.3795 60.0448 30.4635 60.2338 30.5195C60.4298 30.5685 60.6433 30.593 60.8743 30.593C61.4623 30.593 61.9663 30.4845 62.3863 30.2675C62.8133 30.0435 63.2263 29.7215 63.6253 29.3015V27.317ZM57.6403 22.781C58.8513 21.654 60.2933 21.0905 61.9663 21.0905C62.5823 21.0905 63.1283 21.192 63.6043 21.395C64.0873 21.591 64.4898 21.871 64.8118 22.235C65.1408 22.599 65.3893 23.033 65.5573 23.537C65.7323 24.034 65.8198 24.587 65.8198 25.196V32H64.8118C64.5948 32 64.4303 31.9685 64.3183 31.9055C64.2063 31.8355 64.1118 31.699 64.0348 31.496L63.8143 30.6245C63.5413 30.8695 63.2718 31.09 63.0058 31.286C62.7398 31.475 62.4633 31.636 62.1763 31.769C61.8963 31.902 61.5918 32 61.2628 32.063C60.9408 32.133 60.5838 32.168 60.1918 32.168C59.7578 32.168 59.3518 32.1085 58.9738 31.9895C58.6028 31.8705 58.2808 31.692 58.0078 31.454C57.7348 31.209 57.5178 30.908 57.3568 30.551C57.2028 30.194 57.1258 29.774 57.1258 29.291C57.1258 28.878 57.2343 28.4755 57.4513 28.0835C57.6753 27.6915 58.0393 27.3415 58.5433 27.0335C59.0543 26.7185 59.7228 26.4595 60.5488 26.2565C61.3818 26.0535 62.4073 25.938 63.6253 25.91V25.196C63.6253 24.426 63.4608 23.852 63.1318 23.474C62.8028 23.096 62.3198 22.907 61.6828 22.907C61.2488 22.907 60.8848 22.963 60.5908 23.075C60.2968 23.18 60.0413 23.2955 59.8243 23.4215C59.6073 23.5475 59.4148 23.6665 59.2468 23.7785C59.0788 23.8835 58.9003 23.936 58.7113 23.936C58.5573 23.936 58.4243 23.8975 58.3123 23.8205C58.2073 23.7365 58.1198 23.635 58.0498 23.516L57.6403 22.781ZM70.5538 16.46V32H68.2963V16.46H70.5538ZM76.5637 32.168C75.6747 32.168 74.9887 31.9195 74.5057 31.4225C74.0297 30.9185 73.7917 30.2115 73.7917 29.3015V23.0645H72.6157C72.4897 23.0645 72.3812 23.026 72.2902 22.949C72.1992 22.865 72.1537 22.7425 72.1537 22.5815V21.668L73.8862 21.416L74.3797 18.3185C74.4147 18.1995 74.4742 18.105 74.5582 18.035C74.6422 17.958 74.7542 17.9195 74.8942 17.9195H76.0492V21.437H79.0207V23.0645H76.0492V29.144C76.0492 29.529 76.1437 29.823 76.3327 30.026C76.5217 30.229 76.7737 30.3305 77.0887 30.3305C77.2637 30.3305 77.4142 30.3095 77.5402 30.2675C77.6662 30.2185 77.7747 30.1695 77.8657 30.1205C77.9567 30.0645 78.0337 30.0155 78.0967 29.9735C78.1667 29.9245 78.2332 29.9 78.2962 29.9C78.4222 29.9 78.5237 29.97 78.6007 30.11L79.2727 31.2125C78.9227 31.5205 78.5097 31.7585 78.0337 31.9265C77.5577 32.0875 77.0677 32.168 76.5637 32.168ZM82.8476 22.5605C83.2886 22.1265 83.7716 21.78 84.2966 21.521C84.8216 21.255 85.4341 21.122 86.1341 21.122C86.7221 21.122 87.2366 21.22 87.6776 21.416C88.1256 21.612 88.5001 21.8885 88.8011 22.2455C89.1091 22.6025 89.3401 23.033 89.4941 23.537C89.6481 24.034 89.7251 24.5835 89.7251 25.1855V32H87.4781V25.1855C87.4781 24.4645 87.3101 23.9045 86.9741 23.5055C86.6451 23.1065 86.1411 22.907 85.4621 22.907C84.9581 22.907 84.4891 23.0225 84.0551 23.2535C83.6281 23.4845 83.2256 23.7995 82.8476 24.1985V32H80.5901V16.46H82.8476V22.5605ZM101.388 21.29L95.4865 35.045C95.4095 35.206 95.315 35.332 95.203 35.423C95.098 35.514 94.9335 35.5595 94.7095 35.5595H93.04L95.014 31.2755L90.646 21.29H92.6095C92.7985 21.29 92.942 21.3355 93.04 21.4265C93.145 21.5105 93.222 21.612 93.271 21.731L95.8225 27.8105C95.8855 27.9855 95.9415 28.1605 95.9905 28.3355C96.0465 28.5035 96.099 28.6785 96.148 28.8605C96.204 28.6785 96.26 28.5 96.316 28.325C96.372 28.15 96.435 27.975 96.505 27.8L98.9515 21.731C99.0005 21.605 99.081 21.5 99.193 21.416C99.312 21.332 99.4415 21.29 99.5815 21.29H101.388ZM105.329 18.8645V23.705H111.241V25.6895H105.329V32H102.862V16.88H112.291V18.8645H105.329ZM118.372 27.317C117.567 27.345 116.888 27.4115 116.335 27.5165C115.782 27.6145 115.334 27.744 114.991 27.905C114.648 28.059 114.4 28.2445 114.246 28.4615C114.099 28.6785 114.025 28.9165 114.025 29.1755C114.025 29.4275 114.064 29.6445 114.141 29.8265C114.225 30.0015 114.337 30.1485 114.477 30.2675C114.624 30.3795 114.792 30.4635 114.981 30.5195C115.177 30.5685 115.39 30.593 115.621 30.593C116.209 30.593 116.713 30.4845 117.133 30.2675C117.56 30.0435 117.973 29.7215 118.372 29.3015V27.317ZM112.387 22.781C113.598 21.654 115.04 21.0905 116.713 21.0905C117.329 21.0905 117.875 21.192 118.351 21.395C118.834 21.591 119.237 21.871 119.559 22.235C119.888 22.599 120.136 23.033 120.304 23.537C120.479 24.034 120.567 24.587 120.567 25.196V32H119.559C119.342 32 119.177 31.9685 119.065 31.9055C118.953 31.8355 118.859 31.699 118.782 31.496L118.561 30.6245C118.288 30.8695 118.019 31.09 117.753 31.286C117.487 31.475 117.21 31.636 116.923 31.769C116.643 31.902 116.339 32 116.01 32.063C115.688 32.133 115.331 32.168 114.939 32.168C114.505 32.168 114.099 32.1085 113.721 31.9895C113.35 31.8705 113.028 31.692 112.755 31.454C112.482 31.209 112.265 30.908 112.104 30.551C111.95 30.194 111.873 29.774 111.873 29.291C111.873 28.878 111.981 28.4755 112.198 28.0835C112.422 27.6915 112.786 27.3415 113.29 27.0335C113.801 26.7185 114.47 26.4595 115.296 26.2565C116.129 26.0535 117.154 25.938 118.372 25.91V25.196C118.372 24.426 118.208 23.852 117.879 23.474C117.55 23.096 117.067 22.907 116.43 22.907C115.996 22.907 115.632 22.963 115.338 23.075C115.044 23.18 114.788 23.2955 114.571 23.4215C114.354 23.5475 114.162 23.6665 113.994 23.7785C113.826 23.8835 113.647 23.936 113.458 23.936C113.304 23.936 113.171 23.8975 113.059 23.8205C112.954 23.7365 112.867 23.635 112.797 23.516L112.387 22.781ZM129.396 23.2325C129.34 23.3305 129.277 23.4005 129.207 23.4425C129.137 23.4845 129.049 23.5055 128.944 23.5055C128.825 23.5055 128.696 23.4705 128.556 23.4005C128.416 23.3235 128.251 23.2395 128.062 23.1485C127.873 23.0575 127.649 22.977 127.39 22.907C127.138 22.83 126.841 22.7915 126.498 22.7915C126.218 22.7915 125.962 22.8265 125.731 22.8965C125.507 22.9595 125.315 23.054 125.154 23.18C125 23.299 124.881 23.4425 124.797 23.6105C124.713 23.7715 124.671 23.9465 124.671 24.1355C124.671 24.3875 124.748 24.5975 124.902 24.7655C125.056 24.9335 125.259 25.0805 125.511 25.2065C125.763 25.3255 126.05 25.434 126.372 25.532C126.694 25.63 127.023 25.735 127.359 25.847C127.695 25.959 128.024 26.0885 128.346 26.2355C128.668 26.3825 128.955 26.5645 129.207 26.7815C129.459 26.9915 129.662 27.2505 129.816 27.5585C129.97 27.8595 130.047 28.227 130.047 28.661C130.047 29.165 129.956 29.6305 129.774 30.0575C129.592 30.4845 129.326 30.8555 128.976 31.1705C128.626 31.4855 128.188 31.7305 127.663 31.9055C127.145 32.0805 126.55 32.168 125.878 32.168C125.507 32.168 125.147 32.133 124.797 32.063C124.454 32 124.125 31.9125 123.81 31.8005C123.502 31.6815 123.211 31.5415 122.938 31.3805C122.672 31.2195 122.434 31.0445 122.224 30.8555L122.749 29.9945C122.812 29.8895 122.889 29.809 122.98 29.753C123.078 29.69 123.197 29.6585 123.337 29.6585C123.484 29.6585 123.628 29.7075 123.768 29.8055C123.915 29.8965 124.083 29.998 124.272 30.11C124.468 30.222 124.702 30.327 124.975 30.425C125.248 30.516 125.588 30.5615 125.994 30.5615C126.33 30.5615 126.62 30.523 126.865 30.446C127.11 30.362 127.313 30.25 127.474 30.11C127.635 29.97 127.754 29.8125 127.831 29.6375C127.908 29.4555 127.947 29.263 127.947 29.06C127.947 28.787 127.87 28.563 127.716 28.388C127.562 28.213 127.355 28.0625 127.096 27.9365C126.844 27.8105 126.554 27.6985 126.225 27.6005C125.903 27.5025 125.574 27.3975 125.238 27.2855C124.902 27.1735 124.569 27.044 124.24 26.897C123.918 26.75 123.628 26.5645 123.369 26.3405C123.117 26.1095 122.914 25.833 122.76 25.511C122.606 25.182 122.529 24.783 122.529 24.314C122.529 23.887 122.613 23.481 122.781 23.096C122.956 22.711 123.208 22.3715 123.537 22.0775C123.873 21.7835 124.282 21.5525 124.765 21.3845C125.255 21.2095 125.819 21.122 126.456 21.122C127.177 21.122 127.831 21.2375 128.419 21.4685C129.007 21.6995 129.501 22.0145 129.9 22.4135L129.396 23.2325ZM135.392 32.168C134.503 32.168 133.817 31.9195 133.334 31.4225C132.858 30.9185 132.62 30.2115 132.62 29.3015V23.0645H131.444C131.318 23.0645 131.209 23.026 131.118 22.949C131.027 22.865 130.982 22.7425 130.982 22.5815V21.668L132.714 21.416L133.208 18.3185C133.243 18.1995 133.302 18.105 133.386 18.035C133.47 17.958 133.582 17.9195 133.722 17.9195H134.877V21.437H137.849V23.0645H134.877V29.144C134.877 29.529 134.972 29.823 135.161 30.026C135.35 30.229 135.602 30.3305 135.917 30.3305C136.092 30.3305 136.242 30.3095 136.368 30.2675C136.494 30.2185 136.603 30.1695 136.694 30.1205C136.785 30.0645 136.862 30.0155 136.925 29.9735C136.995 29.9245 137.061 29.9 137.124 29.9C137.25 29.9 137.352 29.97 137.429 30.11L138.101 31.2125C137.751 31.5205 137.338 31.7585 136.862 31.9265C136.386 32.0875 135.896 32.168 135.392 32.168ZM142.306 18.8645V23.705H148.217V25.6895H142.306V32H139.838V16.88H149.267V18.8645H142.306ZM154.79 21.122C155.581 21.122 156.295 21.2515 156.932 21.5105C157.576 21.7695 158.122 22.137 158.57 22.613C159.025 23.089 159.375 23.6665 159.62 24.3455C159.865 25.0245 159.987 25.7875 159.987 26.6345C159.987 27.4815 159.865 28.2445 159.62 28.9235C159.375 29.6025 159.025 30.1835 158.57 30.6665C158.122 31.1425 157.576 31.51 156.932 31.769C156.295 32.028 155.581 32.1575 154.79 32.1575C153.992 32.1575 153.271 32.028 152.627 31.769C151.99 31.51 151.444 31.1425 150.989 30.6665C150.534 30.1835 150.184 29.6025 149.939 28.9235C149.694 28.2445 149.571 27.4815 149.571 26.6345C149.571 25.7875 149.694 25.0245 149.939 24.3455C150.184 23.6665 150.534 23.089 150.989 22.613C151.444 22.137 151.99 21.7695 152.627 21.5105C153.271 21.2515 153.992 21.122 154.79 21.122ZM154.79 30.3935C155.756 30.3935 156.473 30.0715 156.942 29.4275C157.418 28.7765 157.656 27.849 157.656 26.645C157.656 25.441 157.418 24.5135 156.942 23.8625C156.473 23.2045 155.756 22.8755 154.79 22.8755C153.81 22.8755 153.082 23.2045 152.606 23.8625C152.13 24.5135 151.892 25.441 151.892 26.645C151.892 27.849 152.13 28.7765 152.606 29.4275C153.082 30.0715 153.81 30.3935 154.79 30.3935ZM166.577 21.122C167.368 21.122 168.082 21.2515 168.719 21.5105C169.363 21.7695 169.909 22.137 170.357 22.613C170.812 23.089 171.162 23.6665 171.407 24.3455C171.652 25.0245 171.774 25.7875 171.774 26.6345C171.774 27.4815 171.652 28.2445 171.407 28.9235C171.162 29.6025 170.812 30.1835 170.357 30.6665C169.909 31.1425 169.363 31.51 168.719 31.769C168.082 32.028 167.368 32.1575 166.577 32.1575C165.779 32.1575 165.058 32.028 164.414 31.769C163.777 31.51 163.231 31.1425 162.776 30.6665C162.321 30.1835 161.971 29.6025 161.726 28.9235C161.481 28.2445 161.358 27.4815 161.358 26.6345C161.358 25.7875 161.481 25.0245 161.726 24.3455C161.971 23.6665 162.321 23.089 162.776 22.613C163.231 22.137 163.777 21.7695 164.414 21.5105C165.058 21.2515 165.779 21.122 166.577 21.122ZM166.577 30.3935C167.543 30.3935 168.26 30.0715 168.729 29.4275C169.205 28.7765 169.443 27.849 169.443 26.645C169.443 25.441 169.205 24.5135 168.729 23.8625C168.26 23.2045 167.543 22.8755 166.577 22.8755C165.597 22.8755 164.869 23.2045 164.393 23.8625C163.917 24.5135 163.679 25.441 163.679 26.645C163.679 27.849 163.917 28.7765 164.393 29.4275C164.869 30.0715 165.597 30.3935 166.577 30.3935ZM180.569 23.9255C180.254 23.5195 179.907 23.236 179.529 23.075C179.151 22.914 178.742 22.8335 178.301 22.8335C177.419 22.8335 176.729 23.159 176.232 23.81C175.735 24.454 175.487 25.4095 175.487 26.6765C175.487 27.3345 175.543 27.898 175.655 28.367C175.767 28.829 175.928 29.207 176.138 29.501C176.348 29.795 176.603 30.0085 176.904 30.1415C177.205 30.2745 177.545 30.341 177.923 30.341C178.497 30.341 178.99 30.2185 179.403 29.9735C179.823 29.7215 180.212 29.368 180.569 28.913V23.9255ZM182.826 16.46V32H181.461C181.16 32 180.968 31.8565 180.884 31.5695L180.684 30.404C180.236 30.929 179.725 31.3525 179.151 31.6745C178.584 31.9965 177.923 32.1575 177.167 32.1575C176.565 32.1575 176.019 32.0385 175.529 31.8005C175.039 31.5555 174.619 31.202 174.269 30.74C173.919 30.278 173.646 29.7075 173.45 29.0285C173.261 28.3425 173.166 27.5585 173.166 26.6765C173.166 25.8785 173.271 25.14 173.481 24.461C173.698 23.782 174.006 23.194 174.405 22.697C174.804 22.193 175.287 21.801 175.854 21.521C176.428 21.234 177.069 21.0905 177.776 21.0905C178.406 21.0905 178.941 21.192 179.382 21.395C179.823 21.591 180.219 21.8675 180.569 22.2245V16.46H182.826Z" fill="black"/>
<path fill-rule="evenodd" clip-rule="evenodd" d="M25.9721 15C25.9721 25.3331 16.6696 33.7097 5.19434 33.7097C5.19434 23.3766 14.4969 15 25.9721 15Z" fill="url(#paint0_linear)"/>
</g>
<defs>
<linearGradient id="paint0_linear" x1="18.9345" y1="18.5484" x2="13.6106" y2="33.8396" gradientUnits="userSpaceOnUse">
<stop stop-color="#35D51B"/>
<stop offset="1" stop-color="#006A37"/>
</linearGradient>
<clipPath id="clip0">
<rect width="187" height="50" fill="white"/>
</clipPath>
</defs>
</svg>
