<svg width="3072" height="3072" viewBox="0 0 3072 3072" fill="none" xmlns="http://www.w3.org/2000/svg">
<rect width="3072" height="3072" rx="64" fill="white"/>
<rect width="3072" height="3072" fill="#DD1021"/>
<path d="M2027.95 670.521C2221.92 670.521 2379.19 1488.26 2379.19 2497H2660.25C2660.25 1410.64 2377.12 530 2027.96 530C1829.29 530 1652.04 794.666 1536.15 1208.53C1420.28 794.666 1242.97 530 1044.32 530C695.159 530 412 1410.64 412 2497H693.089C693.089 1488.26 850.375 670.521 1044.32 670.521C1238.33 670.521 1395.65 1425.36 1395.65 2356.55H1676.64C1676.65 1425.36 1833.93 670.521 2027.95 670.521ZM2800.92 2356.55C2839.05 2356.55 2871 2386.74 2871 2426.44C2871 2466.78 2839.05 2496.98 2800.92 2496.98C2762.67 2496.98 2730.45 2466.77 2730.45 2426.44C2730.45 2386.74 2762.67 2356.55 2800.92 2356.55ZM2800.92 2486.73C2833.21 2486.73 2858.28 2460.79 2858.28 2426.47C2858.28 2392.75 2833.19 2366.84 2800.92 2366.84C2768.24 2366.84 2743.19 2392.75 2743.19 2426.47C2743.18 2460.78 2768.24 2486.73 2800.92 2486.73ZM2773.6 2385.66H2805.26C2824.64 2385.66 2833.78 2393.38 2833.78 2409.1C2833.78 2423.94 2824.51 2430.14 2812.38 2431.43L2835.69 2467.73H2822L2799.79 2432.42H2786.36V2467.73H2773.62L2773.6 2385.66ZM2786.35 2422.12H2799.63C2810.81 2422.12 2821.11 2421.57 2821.11 2408.56C2821.11 2397.64 2811.76 2395.93 2803.18 2395.93H2786.37L2786.35 2422.12Z" fill="#FFC300"/>
</svg>
